<svg xmlns="http://www.w3.org/2000/svg" xmlns:xlink="http://www.w3.org/1999/xlink" version="1.1" x="0px" y="0px" viewBox="0 0 32 40" enable-background="new 0 0 32 32" xml:space="preserve"><g><path d="M29.99,3.049c0.002-0.038,0-0.074-0.003-0.113c-0.005-0.082-0.021-0.161-0.047-0.24c-0.011-0.035-0.02-0.069-0.035-0.104   c-0.049-0.108-0.111-0.212-0.198-0.299s-0.189-0.149-0.298-0.198c-0.036-0.016-0.071-0.024-0.108-0.036   c-0.076-0.024-0.152-0.039-0.231-0.045c-0.042-0.003-0.08-0.006-0.122-0.004c-0.085,0.005-0.168,0.022-0.251,0.05   c-0.03,0.009-0.061,0.013-0.09,0.024c-0.008,0.004-0.017,0.004-0.025,0.008l-26,12c-0.413,0.191-0.646,0.637-0.565,1.085   c0.081,0.448,0.454,0.785,0.907,0.82l12.146,0.935l0.935,12.146c0.035,0.453,0.372,0.826,0.82,0.907C16.883,29.995,16.941,30,17,30   c0.385,0,0.742-0.223,0.908-0.581l12-26c0.004-0.009,0.004-0.018,0.008-0.026c0.012-0.027,0.015-0.057,0.024-0.085   C29.968,3.222,29.986,3.137,29.99,3.049z M24.329,6.257l-8.711,8.711l-8.71-0.67L24.329,6.257z M17.702,25.092l-0.67-8.71   l8.711-8.711L17.702,25.092z"/></g><text x="0" y="47" fill="#000000" font-size="5px" font-weight="bold" font-family="'Helvetica Neue', Helvetica, Arial-Unicode, Arial, Sans-serif">Created by Agung Cahyo s</text><text x="0" y="52" fill="#000000" font-size="5px" font-weight="bold" font-family="'Helvetica Neue', Helvetica, Arial-Unicode, Arial, Sans-serif">from the Noun Project</text></svg>