<svg xmlns="http://www.w3.org/2000/svg" data-name="Layer 1" viewBox="0 0 100 125" x="0px" y="0px"><title>Smartphone</title><path d="M60.15,52.18a18.17,18.17,0,1,0-20.3,0A28.32,28.32,0,0,0,21.72,78.56a2.5,2.5,0,0,0,2.5,2.5H75.78a2.5,2.5,0,0,0,2.5-2.5A28.32,28.32,0,0,0,60.15,52.18ZM36.83,37.11A13.17,13.17,0,1,1,50,50.29,13.19,13.19,0,0,1,36.83,37.11Zm-10,39a23.28,23.28,0,0,1,46.28,0Z"/><text x="0" y="115" fill="#000000" font-size="5px" font-weight="bold" font-family="'Helvetica Neue', Helvetica, Arial-Unicode, Arial, Sans-serif">Created by Khaidir Fajri</text><text x="0" y="120" fill="#000000" font-size="5px" font-weight="bold" font-family="'Helvetica Neue', Helvetica, Arial-Unicode, Arial, Sans-serif">from the Noun Project</text></svg>