<svg xmlns="http://www.w3.org/2000/svg" xmlns:xlink="http://www.w3.org/1999/xlink" version="1.1" x="0px" y="0px" viewBox="0 0 100 125" enable-background="new 0 0 100 100" xml:space="preserve"><g><path d="M33.25,42.125H23.5c-1.657,0-3,1.343-3,3v9.75c0,1.657,1.343,3,3,3h9.75c1.657,0,3-1.343,3-3v-9.75   C36.25,43.468,34.907,42.125,33.25,42.125z"/><path d="M54.875,42.125h-9.75c-1.657,0-3,1.343-3,3v9.75c0,1.657,1.343,3,3,3h9.75c1.656,0,3-1.343,3-3v-9.75   C57.875,43.468,56.531,42.125,54.875,42.125z"/><path d="M76.5,42.125h-9.75c-1.656,0-3,1.343-3,3v9.75c0,1.657,1.344,3,3,3h9.75c1.656,0,3-1.343,3-3v-9.75   C79.5,43.468,78.156,42.125,76.5,42.125z"/></g><text x="0" y="115" fill="#000000" font-size="5px" font-weight="bold" font-family="'Helvetica Neue', Helvetica, Arial-Unicode, Arial, Sans-serif">Created by asianson.design</text><text x="0" y="120" fill="#000000" font-size="5px" font-weight="bold" font-family="'Helvetica Neue', Helvetica, Arial-Unicode, Arial, Sans-serif">from the Noun Project</text></svg>