<?xml version="1.0" encoding="UTF-8"?>
<svg width="23px" height="22px" viewBox="0 0 23 22" version="1.1" xmlns="http://www.w3.org/2000/svg" xmlns:xlink="http://www.w3.org/1999/xlink">
    <title>6C68ADAC-9156-4586-9B6D-E1E029E04F2F</title>
    <g id="🗃-Styleguide" stroke="none" stroke-width="1" fill="none" fill-rule="evenodd">
        <g id="iconos" transform="translate(-422.000000, -412.000000)" fill="#000000">
            <g id="22px" transform="translate(271.000000, 350.000000)">
                <g id="icon/22/funcionarios" transform="translate(151.000000, 62.000000)">
                    <path d="M22.0416667,16.9598266 C22.037983,18.192477 21.0810813,19.2005858 19.867962,19.2858378 L19.7083333,19.2916667 L19,19.291 L19,20.5886792 C19,21.3222801 18.4579244,21.9251517 17.7648011,21.9935394 L17.6331658,22 L3.48241206,22 C3.47968993,22 3.47697306,21.9999767 3.47426163,21.9999303 L3.46666667,22 L1.51111111,22 C0.725639467,22 0.0801405909,21.4402814 0.0069174416,20.7245989 L0,20.5886792 L0,1.41132075 C0,0.677719879 0.599294662,0.0748482877 1.36558103,0.00646062942 L1.51111111,0 L3.46666667,0 L3.474,0.001 L3.48241206,0 L17.6331658,0 C18.3880475,0 19,0.631869825 19,1.41132075 L19,1.41132075 L19,1.791 L19.7098266,1.79166667 C20.942477,1.79535031 21.9505858,2.75225203 22.0358378,3.96537131 L22.0416667,4.125 L22.0416667,16.9598266 Z M3,0.996 L1.51111111,0.996226415 C1.29292454,0.996226415 1.03763196,1.14306617 1,1.33670702 L1,20.5 L1,20.5 C1,20.703778 1.22388903,20.961939 1.43122166,20.9970859 L1.51111111,21.0037736 L3,21.003 L3,0.996 Z M3.96450251,0.99589434 L3.96450251,21.0031094 L17.6331658,21.0037736 C17.8551898,21.0037736 18.0351759,20.8179295 18.0351759,20.5886792 L18.0351759,20.5886792 L18.0351759,1.41132075 C18.0351759,1.18207048 17.8551898,0.996226415 17.6331658,0.996226415 L17.6331658,0.996226415 L3.96450251,0.99589434 Z M19,18.291 L19.70684,18.2916689 C20.3971146,18.2896073 20.9643811,17.7653542 21.0344031,17.0943744 L21.0416667,16.9583333 L21.041,15.625 L19,15.625 L19,18.291 Z M10.9862998,5.71518773 C11.9163916,5.68969332 12.8128066,6.06405912 13.4485118,6.74347034 C14.0353166,7.37061916 14.3480256,8.20216398 14.3240848,9.05497991 L14.3301527,9.40492245 C14.3975412,10.5956376 13.9819279,11.7629329 13.1914562,12.6269001 L13.0283958,12.7955663 C12.666889,13.1914701 12.6962584,14.1371185 13.0693347,14.275713 L13.5283609,14.4503707 L14.3040122,14.7605884 L14.7494456,14.9445918 L16.2436428,15.5842767 C16.4962524,15.695825 16.610605,15.9910333 16.4990567,16.2436428 C16.3875083,16.4962524 16.0923,16.610605 15.8396905,16.4990567 L15.2557758,16.2452607 L14.36501,15.8677443 L13.410388,15.4784878 L12.9371352,15.2942814 C12.8628572,15.2660118 12.7909558,15.238995 12.721548,15.2132865 C11.5648375,14.7835798 11.5087239,12.9768126 12.3091902,12.1013222 C13.0108607,11.4136382 13.3811292,10.4605291 13.3330376,9.48587792 C13.2166206,8.4266672 13.0117109,7.74027464 12.7183085,7.42670023 C12.2782049,6.95633861 11.6576099,6.69716229 10.9863155,6.7148127 C10.3425492,6.69718689 9.7220885,6.95626315 9.28201175,7.42645267 C8.88594268,7.84962324 8.670158,8.40728384 8.6747994,8.98201461 L8.68370288,9.27586657 C8.56766614,10.3220998 8.93901993,11.3636012 9.71006246,12.1203504 C10.4912761,12.9758959 10.4351625,14.7826632 9.27800133,15.212537 L8.83300945,15.3819104 L8.0732597,15.6859652 L7.18887377,16.0549135 L6.16049895,16.498973 C5.90793564,16.610626 5.61268,16.4963956 5.50102702,16.2438323 C5.38937403,15.991269 5.50360442,15.6960133 5.75616772,15.5843604 L6.34841618,15.3266645 L7.24928514,14.9445257 L7.9592014,14.6528712 L8.47153478,14.4495254 L8.93021465,14.2749635 C9.30374156,14.1362019 9.33311097,13.1905535 8.99085687,12.8145945 C8.07676638,11.9187247 7.59803283,10.6741709 7.66985126,9.40400984 L7.67597253,9.05393926 C7.65428257,8.2723567 7.91534136,7.50872487 8.41096332,6.90399301 L8.55191236,6.74311171 C9.13868135,6.11619234 9.94746139,5.74910468 10.7782578,5.71636417 L10.9862998,5.71518773 Z M21.041,11.041 L19,11.041 L19,14.625 L21.041,14.625 L21.041,11.041 Z M21.041,6.458 L19,6.458 L19,10.041 L21.041,10.041 L21.041,6.458 Z M19.7083333,2.79166667 L19,2.791 L19,5.458 L21.041,5.458 L21.0416689,4.12649328 C21.0396073,3.43621875 20.5153542,2.86895226 19.8443744,2.79893026 L19.7083333,2.79166667 Z" id="Combined-Shape"></path>
                </g>
            </g>
        </g>
    </g>
</svg>