<?xml version="1.0" encoding="UTF-8"?>
<svg width="22px" height="22px" viewBox="0 0 22 22" version="1.1" xmlns="http://www.w3.org/2000/svg" xmlns:xlink="http://www.w3.org/1999/xlink">
    <title>F3823387-2292-4970-B24D-DAF0595BA91F</title>
    <g id="🗃-Styleguide" stroke="none" stroke-width="1" fill="none" fill-rule="evenodd">
        <g id="iconos" transform="translate(-566.000000, -412.000000)" fill="#000000">
            <g id="22px" transform="translate(271.000000, 350.000000)">
                <g id="icon/22/download" transform="translate(295.000000, 62.500000)">
                    <path d="M21.5217391,15.5 C21.7565269,15.5 21.9517993,15.6835439 21.9922946,15.9255874 L22,16.0188516 L22,18.0041586 C21.9994007,19.8702325 20.6515993,21.3946047 18.95427,21.4947635 L18.7774783,21.5 L3.22252174,21.5 C1.50209711,21.5 0.0965592279,20.0373866 0.00476828506,18.1957948 L0,18.0039779 L0,16.0188516 C0,15.7322978 0.214124685,15.5 0.47826087,15.5 C0.713048589,15.5 0.90832105,15.6835439 0.948816316,15.9255874 L0.956521739,16.0188516 L0.956521739,18.0039779 C0.956521739,19.3050994 1.88826226,20.3701316 3.06737747,20.4566254 L3.22252174,20.4622968 L18.7773116,20.4622968 C19.9765591,20.4618436 20.9581023,19.451186 21.0381992,18.1722553 L21.0434783,18.0039779 L21.0434783,16.0188516 C21.0434783,15.7322978 21.2576029,15.5 21.5217391,15.5 Z M10.9542138,18.105912 L10.975,18.107 L10.9465724,18.105179 L10.9465724,18.105179 L10.931,18.102 L10.929,18.102 L10.8947723,18.0969078 L10.8947723,18.0969078 C10.8795257,18.0936039 10.8641653,18.089552 10.8489884,18.0847587 L10.8089634,18.0702078 L10.8089634,18.0702078 C10.7954611,18.0646485 10.7817243,18.0582504 10.7682418,18.051195 C10.7559533,18.0447067 10.7443175,18.0379807 10.7329897,18.030812 C10.7272981,18.0272668 10.7214636,18.0234054 10.7156945,18.0194088 L10.6978561,18.0064173 C10.6842458,17.9960797 10.6711813,17.9850608 10.6587136,17.9734113 L3.64644661,10.9615534 C3.45118446,10.7662912 3.45118446,10.4497088 3.64644661,10.2544466 C3.82001296,10.0808803 4.08943736,10.0615951 4.2843055,10.1965912 L4.35355339,10.2544466 L10.5,16.401 L10.5,0.5 C10.5,0.223857625 10.7238576,8.70414851e-14 11,8.70414851e-14 C11.2454599,8.70414851e-14 11.4496084,0.176875161 11.4919443,0.410124368 L11.5,0.5 L11.5,16.401 L17.6464466,10.2544466 C17.820013,10.0808803 18.0894374,10.0615951 18.2843055,10.1965912 L18.3535534,10.2544466 C18.5271197,10.428013 18.5464049,10.6974374 18.4114088,10.8923055 L18.3535534,10.9615534 L11.3412864,17.9734113 L11.3221436,17.9904063 L11.3221436,17.9904063 L11.311,17.999 L11.3535534,17.9615534 L11.306,18.002 L11.2668065,18.030993 L11.2668065,18.030993 C11.2556825,18.0379807 11.2440467,18.0447067 11.2321272,18.0509657 C11.2182757,18.0582504 11.2045389,18.0646485 11.1905951,18.0703894 C11.1780251,18.0755915 11.1647369,18.0804419 11.1511992,18.0847316 C11.1358347,18.089552 11.1204743,18.0936039 11.1049871,18.0969143 C11.0943062,18.0992471 11.0832525,18.1012298 11.0720792,18.102843 C11.0548708,18.1052949 11.0377348,18.106877 11.0205695,18.1075793 C11.0137573,18.1078604 11.0068949,18.108 11,18.108 L10.932,18.102 L10.9542138,18.105912 L10.9542138,18.105912 Z" id="Combined-Shape"></path>
                </g>
            </g>
        </g>
    </g>
</svg>