<svg xmlns="http://www.w3.org/2000/svg" xmlns:xlink="http://www.w3.org/1999/xlink" viewBox="0 0 48 60" version="1.1" x="0px" y="0px"><title>4.10</title><desc>Created with Sketch.</desc><g stroke="none" stroke-width="1" fill="none" fill-rule="evenodd"><g fill-rule="nonzero" fill="#000000"><g><path d="M26,19 L32,19 L32,15 L38.0098214,15 C40.2135362,15 42,16.7890275 42,18.9881206 L42,43.0118794 C42,45.2144576 40.2147544,47 38.0098214,47 L9.99017859,47 C7.7864638,47 6,45.2109725 6,43.0118794 L6,18.9881206 C6,16.7855424 7.7852456,15 9.99017859,15 L16,15 L16,19 L22,19 L22,2.00174332 C22,0.89621101 22.8877296,0 24,0 C25.1045695,0 26,0.889261723 26,2.00174332 L26,19 Z M22,19 L10,19 L10,43 L38,43 L38,19 L26,19 L26,29.1689409 L28.2589225,26.9100184 C29.0327682,26.1361727 30.2878138,26.1365664 31.0743077,26.9230603 C31.8553563,27.7041089 31.850746,28.9750491 31.0873496,29.7384455 L25.4044115,35.4213836 C25.0196274,35.8061678 24.5158695,35.999526 24.009899,36 L23.9946338,35.9940292 C23.4867072,35.9929457 22.9816473,35.8009627 22.6020682,35.4213836 L16.9191301,29.7384455 C16.1452844,28.9645998 16.1456782,27.7095542 16.9321721,26.9230603 C17.7132207,26.1420117 18.9841608,26.146622 19.7475573,26.9100184 L22,29.1624611 L22,19 Z"/></g></g></g><text x="0" y="63" fill="#000000" font-size="5px" font-weight="bold" font-family="'Helvetica Neue', Helvetica, Arial-Unicode, Arial, Sans-serif">Created by Тимур Минвалеев</text><text x="0" y="68" fill="#000000" font-size="5px" font-weight="bold" font-family="'Helvetica Neue', Helvetica, Arial-Unicode, Arial, Sans-serif">from the Noun Project</text></svg>