<?xml version="1.0" encoding="UTF-8"?>
<svg width="27px" height="26px" viewBox="0 0 27 26" version="1.1" xmlns="http://www.w3.org/2000/svg" xmlns:xlink="http://www.w3.org/1999/xlink">
    <title>6439FC4F-00DB-482A-A474-EDB485876480</title>
    <g id="🗃-Styleguide" stroke="none" stroke-width="1" fill="none" fill-rule="evenodd">
        <g id="iconos" transform="translate(-767.000000, -594.000000)" fill="#000000">
            <g id="26px" transform="translate(269.500000, 230.000000)">
                <g id="Group" transform="translate(0.000000, -0.000000)">
                    <g id="icon/input/options" transform="translate(498.000000, 364.000000)">
                        <path d="M21,10 C22.6568542,10 24,11.3431458 24,13 C24,14.6568542 22.6568542,16 21,16 C19.3431458,16 18,14.6568542 18,13 C18,11.3431458 19.3431458,10 21,10 Z M13,10 C14.6568542,10 16,11.3431458 16,13 C16,14.6568542 14.6568542,16 13,16 C11.3431458,16 10,14.6568542 10,13 C10,11.3431458 11.3431458,10 13,10 Z M5,10 C6.65685425,10 8,11.3431458 8,13 C8,14.6568542 6.65685425,16 5,16 C3.34314575,16 2,14.6568542 2,13 C2,11.3431458 3.34314575,10 5,10 Z" id="Combined-Shape"></path>
                    </g>
                </g>
            </g>
        </g>
    </g>
</svg>