<?xml version="1.0" encoding="UTF-8"?>
<svg width="22px" height="22px" viewBox="0 0 22 22" version="1.1" xmlns="http://www.w3.org/2000/svg" xmlns:xlink="http://www.w3.org/1999/xlink">
    <title>7432F980-EE91-46A0-BC37-517E87E9990B</title>
    <g id="🗃-Styleguide" stroke="none" stroke-width="1" fill="none" fill-rule="evenodd">
        <g id="iconos" transform="translate(-494.000000, -412.000000)" fill="#000000">
            <g id="22px" transform="translate(271.000000, 350.000000)">
                <g id="icon/22/sent" transform="translate(223.000000, 62.000000)">
                    <path d="M21.7142713,0.0349968791 C21.7424521,0.0459937624 21.7659031,0.0584765569 21.7881034,0.0728149182 C21.7943915,0.0771411115 21.8005302,0.0812738692 21.806588,0.0855712501 C21.8249388,0.098505603 21.842479,0.113073734 21.8588871,0.128818131 C21.8608981,0.130742044 21.8634055,0.133193507 21.8658915,0.135679498 L21.8737212,0.143696094 C21.8898472,0.160601235 21.9047282,0.17869819 21.9181983,0.197820934 L21.92542,0.208791053 L21.92542,0.208791053 L21.9314062,0.217618537 C22.0063185,0.336329149 22.0284863,0.489891957 21.9621252,0.642522467 L21.9621252,0.642522467 L12.7954062,21.7259761 C12.6422513,22.0782324 12.1497289,22.0971476 11.9700083,21.7576754 L11.9700083,21.7576754 L7.91088791,14.0897664 L0.243895605,10.0315627 C-0.0694633761,9.86566679 -0.0774507925,9.43324145 0.200233649,9.24723564 L0.200233649,9.24723564 L0.275594857,9.20616477 L21.3590485,0.0394457807 C21.3593832,0.039300252 21.359718,0.0391551491 21.3600527,0.0390104715 C21.3737629,0.0329618656 21.3877061,0.027746308 21.4018249,0.0232319932 C21.4173234,0.0180541364 21.4324012,0.0139392523 21.4474202,0.0106248008 C21.4541412,0.0097922449 21.4611791,0.00848495976 21.4682386,0.00734318986 C21.5226154,-0.00280357439 21.5756428,-0.00185233805 21.6260543,0.00768596611 C21.6277322,0.00951194817 21.6300654,0.00996131954 21.6323957,0.0104289266 C21.640433,0.0105891402 21.6477228,0.0122855319 21.6549498,0.0141593701 L21.7142713,0.0349968791 L21.7142713,0.0349968791 Z M20.158,2.49 L8.813,13.836 L12.3338298,20.4872196 L20.158,2.49 Z M19.511,1.841 L1.51343472,9.66682451 L8.165,13.187 L19.511,1.841 Z" id="Combined-Shape"></path>
                </g>
            </g>
        </g>
    </g>
</svg>