<?xml version="1.0" encoding="UTF-8"?>
<svg width="22px" height="22px" viewBox="0 0 22 22" version="1.1" xmlns="http://www.w3.org/2000/svg" xmlns:xlink="http://www.w3.org/1999/xlink">
    <title>4C16286C-6435-49E1-969D-EDE8DFBF5A88</title>
    <g id="🗃-Styleguide" stroke="none" stroke-width="1" fill="none" fill-rule="evenodd">
        <g id="iconos" transform="translate(-705.000000, -412.000000)" fill="#000000">
            <g id="22px" transform="translate(271.000000, 350.000000)">
                <g id="icon/26/moreinfo-copy-4" transform="translate(433.996078, 62.000000)">
                    <path d="M17.858,8.259 C16.503617,8.25858863 15.2486702,7.5911343 14.4860624,6.49922123 L14.4048399,6.37801984 L7.99022907,9.58486737 L8.06179129,9.79406334 C8.30704939,10.583457 8.30704939,11.4295849 8.06179129,12.2189785 L7.99022907,12.4272588 L14.4048399,15.635022 L14.4860624,15.5147364 C15.2105398,14.4774189 16.3793531,13.8231755 17.6576494,13.7592871 L17.8603467,13.7541356 C19.7027499,13.7526911 21.3221982,14.9743459 21.8267977,16.7462425 C22.3313973,18.5181394 21.5985242,20.4096866 20.0318267,21.379067 C18.4651292,22.3484474 16.4453334,22.16009 15.0848925,20.9177375 C13.8385959,19.7796213 13.4231066,18.0103261 13.9953046,16.4543929 L7.57954344,13.2462846 C6.64311664,14.693898 4.88481611,15.419969 3.17502333,15.0168094 C1.31454098,14.5781181 -6.30162589e-13,12.9175663 -6.30162589e-13,11.0060631 C-6.30162589e-13,9.09455982 1.31454098,7.43400811 3.17502333,6.99531673 C4.88510741,6.59208843 6.64371578,7.31847563 7.58002199,8.76658154 L13.9949325,5.55929044 C13.4186682,3.9994128 13.8337144,2.22404838 15.0832248,1.08178456 C16.4468567,-0.164805534 18.4725407,-0.354045828 20.0434754,0.618395752 C21.6144102,1.59083733 22.3483535,3.4883448 21.8406673,5.2647832 C21.3517851,6.97542489 19.8260946,8.17298298 18.0639705,8.25532659 L17.8603467,8.25982196 L17.8603467,8.25982196 L17.858,8.259 Z M14.996696,16.4430293 C14.3561169,17.7240381 14.6442701,19.2752703 15.7023908,20.2415445 C16.7605115,21.2078188 18.3314638,21.3543189 19.5500063,20.6003564 C20.7685488,19.8463939 21.3385612,18.3751905 20.9460949,16.9970485 C20.5536286,15.6189066 19.2940575,14.6687305 17.8611216,14.6698531 C16.6476597,14.6709573 15.5388355,15.3573428 14.996696,16.4430293 Z M3.38518148,7.8865937 C1.93813965,8.2277981 0.915718884,9.51933832 0.915718884,11.0060631 C0.915718884,12.4927878 1.93813965,13.7843281 3.38518148,14.1255325 C4.83222331,14.4667369 6.32393667,13.7680155 6.98813096,12.437904 L6.99,12.433 L7.07956132,12.2417572 C7.44132917,11.3865942 7.41118185,10.4113369 6.98911935,9.57618965 L6.98813096,9.57422214 C6.32393667,8.2441107 4.83222331,7.5453893 3.38518148,7.8865937 Z M15.7010808,1.75765073 C14.6880461,2.68373575 14.3797791,4.14452182 14.9142759,5.39340764 L14.996696,5.5709283 L14.996696,5.5709283 C15.5087167,6.59629893 16.5262061,7.26550284 17.6599745,7.33762342 L17.8618811,7.34411575 L17.8618811,7.34411575 C19.299782,7.34762726 20.5650822,6.39570354 20.960199,5.01315522 C21.3553162,3.6306056 20.7841098,2.15383149 19.5614976,1.39700889 C18.3388854,0.640186282 16.7623553,0.787466422 15.7010808,1.75765073 Z" id="Combined-Shape"></path>
                </g>
            </g>
        </g>
    </g>
</svg>